<?xml version="1.0" encoding="UTF-8" standalone="no"?>
<!-- Created with Inkscape (http://www.inkscape.org/) -->

<svg
   width="80.000984mm"
   height="79.999557mm"
   viewBox="0 0 80.000984 79.999557"
   version="1.1"
   id="svg1"
   xml:space="preserve"
   xmlns:inkscape="http://www.inkscape.org/namespaces/inkscape"
   xmlns:sodipodi="http://sodipodi.sourceforge.net/DTD/sodipodi-0.dtd"
   xmlns="http://www.w3.org/2000/svg"
   xmlns:svg="http://www.w3.org/2000/svg"><sodipodi:namedview
     id="namedview1"
     pagecolor="#505050"
     bordercolor="#eeeeee"
     borderopacity="1"
     inkscape:showpageshadow="0"
     inkscape:pageopacity="0"
     inkscape:pagecheckerboard="0"
     inkscape:deskcolor="#505050"
     inkscape:document-units="mm" /><defs
     id="defs1"><linearGradient
       id="swatch9"
       inkscape:swatch="solid"><stop
         style="stop-color:#000000;stop-opacity:1;"
         offset="0"
         id="stop9" /></linearGradient></defs><g
     inkscape:label="Layer 1"
     inkscape:groupmode="layer"
     id="layer1"
     transform="translate(-4.6498839,-48.00001)"><g
       id="g52407"
       transform="matrix(1.0162499,0,0,1.0063642,-0.0957038,0.28368204)"><path
         id="path8"
         style="fill:none;stroke:#0f0f0f;stroke-width:4.359;stroke-dasharray:none;stroke-opacity:1"
         d="M 23.515781,91.803398 H 64.542356 M 44.029069,122.76713 V 79.16297 M 63.389847,67.187455 c 0,6.988052 -3.765751,13.433825 -9.85316,16.86549 -6.08741,3.431666 -13.551703,3.316621 -19.530465,-0.301017 -5.978761,-3.617638 -9.544077,-10.176406 -9.328716,-17.16114 m -11.11655,0.657441 H 79.458147 L 44.689874,122.85153 8.6520403,67.304852 Z m 9.954825,24.555169 H 64.542356 M 63.389847,67.187455 c 0,6.988052 -3.765751,13.433825 -9.85316,16.86549 -6.08741,3.431666 -13.551703,3.316621 -19.530465,-0.301017 C 28.027461,80.13429 24.462145,73.575522 24.677506,66.590788 M 44.029069,122.76713 V 79.16297 M 13.560956,67.248229 H 79.458147 L 44.689874,122.85153 8.6520403,67.304852 Z"
         sodipodi:nodetypes="cccccsscccccccccsscccccccc" /><path
         id="path52406"
         style="fill:#0f0f0f;fill-opacity:1;stroke:none;stroke-width:0;stroke-linecap:square;stroke-linejoin:miter;stroke-miterlimit:1;stroke-dasharray:none;stroke-opacity:1;paint-order:markers stroke fill"
         d="m 54.669845,61.505263 h 2.520312 v -3.513517 h 10.195869 v 3.656717 h 2.663532 v -3.656717 h 6.18626 v -2.443622 h -6.043065 v -4.696973 h -0.02872 7.618264 V 48.101703 H 67.385946 v 7.360502 H 57.333299 v -4.467852 h 7.360476 v -2.92129 h -9.99537 z m -9.566251,-14.090691 -6.615858,13.976261 13.550799,0.0053 z m 0.07329,4.816851 3.371308,6.996957 -6.570003,0.0078 z m -19.404651,-3.84378 v 1.34602 l 3.171349,5.092544 -3.113569,0.0066 v 6.615845 h 2.462229 v -4.182505 h 2.43465 l 2.454351,4.252104 h 3.330244 L 33.827331,56.86825 c 0,0 3.071948,-0.427881 2.741938,-4.540957 -0.27049,-3.37125 -3.565259,-3.939613 -3.565259,-3.939613 z m 6.986536,2.16515 c 0,0 1.634487,-0.01709 1.777682,1.901795 0.143191,1.918886 -1.659505,2.807595 -1.659505,2.807595 l -2.862369,-4.72041 z M 10.333676,49.402928 v 11.9433 h 2.574937 v -3.130183 l 3.283447,-2.810888 3.526943,6.034645 h 3.489329 l -4.668263,-8.085674 4.748017,-4.748017 H 19.208972 L 12.96835,54.04481 h -0.005 v -4.587096 z m -0.05479,0.219152 v 11.943298 m 0.05479,-11.998084 v 11.943297"
         sodipodi:nodetypes="cccccccccccccccccccccccccccccccccccccccccscccsccccccccccccccccccccc" /></g></g></svg>
