<?xml version="1.0" encoding="UTF-8" standalone="no"?>
<!-- Created with Inkscape (http://www.inkscape.org/) -->

<svg
   width="80.000504mm"
   height="60.886192mm"
   viewBox="0 0 80.000504 60.886192"
   version="1.1"
   id="svg1"
   xml:space="preserve"
   xmlns:inkscape="http://www.inkscape.org/namespaces/inkscape"
   xmlns:sodipodi="http://sodipodi.sourceforge.net/DTD/sodipodi-0.dtd"
   xmlns="http://www.w3.org/2000/svg"
   xmlns:svg="http://www.w3.org/2000/svg"><sodipodi:namedview
     id="namedview1"
     pagecolor="#505050"
     bordercolor="#eeeeee"
     borderopacity="1"
     inkscape:showpageshadow="0"
     inkscape:pageopacity="0"
     inkscape:pagecheckerboard="0"
     inkscape:deskcolor="#505050"
     inkscape:document-units="mm" /><defs
     id="defs1"><linearGradient
       id="swatch9"
       inkscape:swatch="solid"><stop
         style="stop-color:#000000;stop-opacity:1;"
         offset="0"
         id="stop9" /></linearGradient></defs><g
     inkscape:label="Layer 1"
     inkscape:groupmode="layer"
     id="layer1"
     transform="translate(-102.16543,-64.732)"><path
       id="path9"
       style="fill:none;stroke:#d5d2d2;stroke-width:4.35957;stroke-dasharray:none;stroke-opacity:1"
       d="m 121.3214,91.085125 h 41.68734 M 142.16508,121.56739 V 78.641252 M 161.83766,66.851953 A 19.67259,19.059715 0 0 1 151.82581,83.455189 19.67259,19.059715 0 0 1 131.9808,83.158852 19.67259,19.059715 0 0 1 122.50184,66.264564 m -11.2956,0.647219 h 66.95852 L 142.83652,121.65047 106.21826,66.967524 Z m 10.11516,24.173342 h 41.68734 M 161.83766,66.851953 A 19.67259,19.059715 0 0 1 151.82581,83.455189 19.67259,19.059715 0 0 1 131.9808,83.158852 19.67259,19.059715 0 0 1 122.50184,66.264564 m 19.66324,55.302826 V 78.641252 M 111.20624,66.911783 h 66.95852 L 142.83652,121.65047 106.21826,66.967524 Z"
       inkscape:export-filename="path9.svg"
       inkscape:export-xdpi="40.6395"
       inkscape:export-ydpi="40.6395" /></g></svg>
