<?xml version="1.0" encoding="UTF-8" standalone="no"?>
<!-- Created with Inkscape (http://www.inkscape.org/) -->

<svg
   width="80.000504mm"
   height="80.006882mm"
   viewBox="0 0 80.000504 80.006882"
   version="1.1"
   id="svg1"
   xml:space="preserve"
   xmlns:inkscape="http://www.inkscape.org/namespaces/inkscape"
   xmlns:sodipodi="http://sodipodi.sourceforge.net/DTD/sodipodi-0.dtd"
   xmlns="http://www.w3.org/2000/svg"
   xmlns:svg="http://www.w3.org/2000/svg"><sodipodi:namedview
     id="namedview1"
     pagecolor="#505050"
     bordercolor="#eeeeee"
     borderopacity="1"
     inkscape:showpageshadow="0"
     inkscape:pageopacity="0"
     inkscape:pagecheckerboard="0"
     inkscape:deskcolor="#505050"
     inkscape:document-units="mm" /><defs
     id="defs1"><linearGradient
       id="swatch9"
       inkscape:swatch="solid"><stop
         style="stop-color:#000000;stop-opacity:1;"
         offset="0"
         id="stop9" /></linearGradient></defs><g
     inkscape:label="Layer 1"
     inkscape:groupmode="layer"
     id="layer1"
     transform="translate(-102.16543,-45.611308)"><path
       id="path9"
       style="fill:none;stroke:#d5d2d2;stroke-width:4.35957;stroke-dasharray:none;stroke-opacity:1"
       d="m 121.3214,91.085125 h 41.68734 M 142.16508,121.56739 V 78.641252 M 161.83766,66.851953 A 19.67259,19.059715 0 0 1 151.82581,83.455189 19.67259,19.059715 0 0 1 131.9808,83.158852 19.67259,19.059715 0 0 1 122.50184,66.264564 m -11.2956,0.647219 h 66.95852 L 142.83652,121.65047 106.21826,66.967524 Z m 10.11516,24.173342 h 41.68734 M 161.83766,66.851953 A 19.67259,19.059715 0 0 1 151.82581,83.455189 19.67259,19.059715 0 0 1 131.9808,83.158852 19.67259,19.059715 0 0 1 122.50184,66.264564 m 19.66324,55.302826 V 78.641252 M 111.20624,66.911783 h 66.95852 L 142.83652,121.65047 106.21826,66.967524 Z" /><path
       id="path52407"
       style="fill:#d5d2d2;fill-opacity:1;stroke:none;stroke-width:0;stroke-linecap:square;stroke-linejoin:miter;stroke-miterlimit:1;stroke-dasharray:none;stroke-opacity:1;paint-order:markers stroke fill"
       d="m 152.97721,59.482891 h 2.56091 v -3.458882 h 10.36008 v 3.599855 h 2.70643 v -3.599855 h 6.28591 v -2.405624 h -6.1404 v -4.623938 h -0.0291 7.74096 v -2.706695 h -10.5638 v 7.246049 h -10.21456 v -4.398379 h 7.47904 v -2.875864 h -10.15636 z m -9.72033,-13.871585 -6.72239,13.758935 13.76903,0.0052 z m 0.0746,4.741951 3.42561,6.888157 -6.67583,0.0077 z M 123.6143,46.569245 v 1.32509 l 3.22242,5.013359 -3.1637,0.0065 v 6.51297 h 2.50189 v -4.117468 h 2.47385 l 2.49389,4.185984 h 3.38387 l -2.7274,-4.577694 c 0,0 3.12142,-0.421227 2.78609,-4.470346 -0.27484,-3.318828 -3.62267,-3.878354 -3.62267,-3.878354 z m 7.09905,2.131483 c 0,0 1.66081,-0.01682 1.80633,1.872223 0.14549,1.889048 -1.68624,2.763938 -1.68624,2.763938 l -2.90851,-4.647008 z M 107.927,47.568744 v 11.757585 h 2.61642 v -3.08151 l 3.33632,-2.767179 3.58374,5.940808 h 3.54553 l -4.74346,-7.959944 4.8245,-4.674187 h -4.14482 l -6.34113,5.354129 h -0.005 v -4.515769 z m -0.0556,0.215744 V 59.54207 m 0.0556,-11.811515 v 11.757581"
       sodipodi:nodetypes="cccccccccccccccccccccccccccccccccccccccccscccsccccccccccccccccccccc" /></g></svg>
